STARTFONT 2.1
COMMENT "Created by Serge Winitzki, 1999. Free distribution."
COMMENT $XFree86$
FONT -Misc-Fixed-Bold-R-Normal--15-140-75-75-C-90-KOI8-R
SIZE 11 75 75
FONTBOUNDINGBOX 9 15 0 -3
STARTPROPERTIES 23
FONTNAME_REGISTRY ""
FOUNDRY "Misc"
FAMILY_NAME "Fixed"
WEIGHT_NAME "Bold"
SLANT "R"
SETWIDTH_NAME "Normal"
ADD_STYLE_NAME ""
PIXEL_SIZE 15
POINT_SIZE 140
RESOLUTION_X 75
RESOLUTION_Y 75
SPACING "C"
AVERAGE_WIDTH 90
CHARSET_REGISTRY "KOI8"
CHARSET_ENCODING "R"
DEFAULT_CHAR 0
FONT_DESCENT 3
FONT_ASCENT 12
COPYRIGHT "Public domain font.  Share and enjoy."
X_HEIGHT 7
CAP_HEIGHT 10
_XMBDFED_INFO "Edited with xmbdfed 4.3."
_XFREE86_GLYPH_RANGES "0_126 149 152_154 156_158 163 179 191_255"
ENDPROPERTIES
CHARS 201
STARTCHAR defaultchar
ENCODING 0
SWIDTH 785 0
DWIDTH 9 0
BBX 8 11 0 0
BITMAP
DB
DB
00
C3
C3
00
C3
C3
00
DB
DB
ENDCHAR
STARTCHAR uni25C6
ENCODING 1
SWIDTH 785 0
DWIDTH 9 0
BBX 9 9 0 0
BITMAP
0800
1C00
3E00
7F00
FF80
7F00
3E00
1C00
0800
ENDCHAR
STARTCHAR shade
ENCODING 2
SWIDTH 785 0
DWIDTH 9 0
BBX 9 15 0 -3
BITMAP
AA80
5500
AA80
5500
AA80
5500
AA80
5500
AA80
5500
AA80
5500
AA80
5500
AA80
ENDCHAR
STARTCHAR uni2409
ENCODING 3
SWIDTH 785 0
DWIDTH 9 0
BBX 8 10 0 0
BITMAP
D8
D8
F8
D8
D8
0F
06
06
06
06
ENDCHAR
STARTCHAR uni240C
ENCODING 4
SWIDTH 785 0
DWIDTH 9 0
BBX 9 10 0 0
BITMAP
F000
C000
E000
C000
C000
0F00
0C00
0E00
0C00
0C00
ENDCHAR
STARTCHAR uni240D
ENCODING 5
SWIDTH 785 0
DWIDTH 9 0
BBX 8 10 0 0
BITMAP
70
C0
C0
C0
70
1E
1B
1E
1B
1B
ENDCHAR
STARTCHAR uni240A
ENCODING 6
SWIDTH 785 0
DWIDTH 9 0
BBX 9 10 0 0
BITMAP
C000
C000
C000
C000
F000
0F00
0C00
0E00
0C00
0C00
ENDCHAR
STARTCHAR degree
ENCODING 7
SWIDTH 785 0
DWIDTH 9 0
BBX 8 4 0 6
BITMAP
1E
33
33
1E
ENDCHAR
STARTCHAR plusminus
ENCODING 8
SWIDTH 785 0
DWIDTH 9 0
BBX 8 10 0 0
BITMAP
18
18
18
FF
FF
18
18
18
FF
FF
ENDCHAR
STARTCHAR uni2424
ENCODING 9
SWIDTH 785 0
DWIDTH 9 0
BBX 8 11 0 0
BITMAP
F0
D8
D8
D8
D8
00
18
18
18
18
1F
ENDCHAR
STARTCHAR uni240B
ENCODING 10
SWIDTH 785 0
DWIDTH 9 0
BBX 8 10 0 0
BITMAP
D8
D8
D8
70
20
0F
06
06
06
06
ENDCHAR
STARTCHAR SF040000
ENCODING 11
SWIDTH 785 0
DWIDTH 9 0
BBX 8 8 0 4
BITMAP
0C
0C
0C
0C
0C
0C
FC
FC
ENDCHAR
STARTCHAR SF030000
ENCODING 12
SWIDTH 785 0
DWIDTH 9 0
BBX 8 9 0 -3
BITMAP
FC
FC
0C
0C
0C
0C
0C
0C
0C
ENDCHAR
STARTCHAR SF010000
ENCODING 13
SWIDTH 785 0
DWIDTH 9 0
BBX 9 9 0 -3
BITMAP
0F80
0F80
0C00
0C00
0C00
0C00
0C00
0C00
0C00
ENDCHAR
STARTCHAR SF020000
ENCODING 14
SWIDTH 785 0
DWIDTH 9 0
BBX 9 8 0 4
BITMAP
0C00
0C00
0C00
0C00
0C00
0C00
0F80
0F80
ENDCHAR
STARTCHAR SF050000
ENCODING 15
SWIDTH 785 0
DWIDTH 9 0
BBX 9 15 0 -3
BITMAP
0C00
0C00
0C00
0C00
0C00
0C00
FF80
FF80
0C00
0C00
0C00
0C00
0C00
0C00
0C00
ENDCHAR
STARTCHAR char16
ENCODING 16
SWIDTH 785 0
DWIDTH 9 0
BBX 9 2 0 9
BITMAP
FF80
FF80
ENDCHAR
STARTCHAR char17
ENCODING 17
SWIDTH 785 0
DWIDTH 9 0
BBX 9 2 0 6
BITMAP
FF80
FF80
ENDCHAR
STARTCHAR char18
ENCODING 18
SWIDTH 785 0
DWIDTH 9 0
BBX 9 2 0 4
BITMAP
FF80
FF80
ENDCHAR
STARTCHAR char19
ENCODING 19
SWIDTH 785 0
DWIDTH 9 0
BBX 9 2 0 2
BITMAP
FF80
FF80
ENDCHAR
STARTCHAR char20
ENCODING 20
SWIDTH 785 0
DWIDTH 9 0
BBX 9 2 0 -1
BITMAP
FF80
FF80
ENDCHAR
STARTCHAR SF080000
ENCODING 21
SWIDTH 785 0
DWIDTH 9 0
BBX 9 15 0 -3
BITMAP
0C00
0C00
0C00
0C00
0C00
0C00
0F80
0F80
0C00
0C00
0C00
0C00
0C00
0C00
0C00
ENDCHAR
STARTCHAR SF090000
ENCODING 22
SWIDTH 785 0
DWIDTH 9 0
BBX 8 15 0 -3
BITMAP
0C
0C
0C
0C
0C
0C
FC
FC
0C
0C
0C
0C
0C
0C
0C
ENDCHAR
STARTCHAR SF070000
ENCODING 23
SWIDTH 785 0
DWIDTH 9 0
BBX 9 8 0 4
BITMAP
0C00
0C00
0C00
0C00
0C00
0C00
FF80
FF80
ENDCHAR
STARTCHAR SF060000
ENCODING 24
SWIDTH 785 0
DWIDTH 9 0
BBX 9 9 0 -3
BITMAP
FF80
FF80
0C00
0C00
0C00
0C00
0C00
0C00
0C00
ENDCHAR
STARTCHAR SF110000
ENCODING 25
SWIDTH 785 0
DWIDTH 9 0
BBX 9 15 0 -3
BITMAP
0C00
0C00
0C00
0C00
0C00
0C00
0C00
0C00
0C00
0C00
0C00
0C00
0C00
0C00
0C00
ENDCHAR
STARTCHAR lessequal
ENCODING 26
SWIDTH 785 0
DWIDTH 9 0
BBX 8 9 0 0
BITMAP
07
1C
70
C0
70
1C
07
00
FF
ENDCHAR
STARTCHAR greaterequal
ENCODING 27
SWIDTH 785 0
DWIDTH 9 0
BBX 8 9 0 0
BITMAP
E0
38
0E
03
0E
38
E0
00
FF
ENDCHAR
STARTCHAR pi
ENCODING 28
SWIDTH 785 0
DWIDTH 9 0
BBX 8 7 0 0
BITMAP
FF
66
66
66
66
66
66
ENDCHAR
STARTCHAR notequal
ENCODING 29
SWIDTH 785 0
DWIDTH 9 0
BBX 8 8 0 0
BITMAP
0C
0C
FF
18
18
FF
30
30
ENDCHAR
STARTCHAR sterling
ENCODING 30
SWIDTH 785 0
DWIDTH 9 0
BBX 8 10 0 -1
BITMAP
1E
33
30
30
7C
30
30
F8
BF
E0
ENDCHAR
STARTCHAR periodcentered
ENCODING 31
SWIDTH 785 0
DWIDTH 9 0
BBX 8 3 0 3
BITMAP
08
1C
08
ENDCHAR
STARTCHAR space
ENCODING 32
SWIDTH 785 0
DWIDTH 9 0
BBX 0 0 0 0
BITMAP
ENDCHAR
STARTCHAR exclam
ENCODING 33
SWIDTH 785 0
DWIDTH 9 0
BBX 8 10 0 0
BITMAP
18
18
18
18
18
18
18
18
00
18
ENDCHAR
STARTCHAR quotedbl
ENCODING 34
SWIDTH 785 0
DWIDTH 9 0
BBX 8 3 0 7
BITMAP
36
36
36
ENDCHAR
STARTCHAR numbersign
ENCODING 35
SWIDTH 785 0
DWIDTH 9 0
BBX 8 8 0 1
BITMAP
36
36
7F
36
36
7F
36
36
ENDCHAR
STARTCHAR dollar
ENCODING 36
SWIDTH 785 0
DWIDTH 9 0
BBX 8 11 0 -1
BITMAP
08
3E
6B
68
78
3E
0F
0B
6B
3E
08
ENDCHAR
STARTCHAR percent
ENCODING 37
SWIDTH 785 0
DWIDTH 9 0
BBX 8 10 0 0
BITMAP
43
E6
E6
4C
18
18
32
67
67
C2
ENDCHAR
STARTCHAR ampersand
ENCODING 38
SWIDTH 785 0
DWIDTH 9 0
BBX 8 10 0 0
BITMAP
38
6C
6C
78
30
79
CF
C6
CE
7B
ENDCHAR
STARTCHAR quotesingle
ENCODING 39
SWIDTH 785 0
DWIDTH 9 0
BBX 8 4 0 6
BITMAP
18
18
18
18
ENDCHAR
STARTCHAR parenleft
ENCODING 40
SWIDTH 785 0
DWIDTH 9 0
BBX 8 12 0 -1
BITMAP
06
0C
18
18
30
30
30
30
18
18
0C
06
ENDCHAR
STARTCHAR parenright
ENCODING 41
SWIDTH 785 0
DWIDTH 9 0
BBX 8 12 0 -1
BITMAP
30
18
0C
0C
06
06
06
06
0C
0C
18
30
ENDCHAR
STARTCHAR asterisk
ENCODING 42
SWIDTH 785 0
DWIDTH 9 0
BBX 8 5 0 2
BITMAP
36
1C
7F
1C
36
ENDCHAR
STARTCHAR plus
ENCODING 43
SWIDTH 785 0
DWIDTH 9 0
BBX 8 7 0 1
BITMAP
18
18
18
FF
18
18
18
ENDCHAR
STARTCHAR comma
ENCODING 44
SWIDTH 785 0
DWIDTH 9 0
BBX 8 5 0 -3
BITMAP
1C
1C
0C
0C
18
ENDCHAR
STARTCHAR hyphen
ENCODING 45
SWIDTH 785 0
DWIDTH 9 0
BBX 8 1 0 4
BITMAP
FF
ENDCHAR
STARTCHAR period
ENCODING 46
SWIDTH 785 0
DWIDTH 9 0
BBX 8 3 0 -1
BITMAP
18
3C
18
ENDCHAR
STARTCHAR slash
ENCODING 47
SWIDTH 785 0
DWIDTH 9 0
BBX 8 10 0 0
BITMAP
03
06
06
0C
18
18
30
60
60
C0
ENDCHAR
STARTCHAR zero
ENCODING 48
SWIDTH 785 0
DWIDTH 9 0
BBX 8 10 0 0
BITMAP
18
3C
66
C3
C3
C3
C3
66
3C
18
ENDCHAR
STARTCHAR one
ENCODING 49
SWIDTH 785 0
DWIDTH 9 0
BBX 8 10 0 0
BITMAP
18
38
78
18
18
18
18
18
18
7E
ENDCHAR
STARTCHAR two
ENCODING 50
SWIDTH 785 0
DWIDTH 9 0
BBX 8 10 0 0
BITMAP
3C
66
C3
03
06
0C
18
30
60
FF
ENDCHAR
STARTCHAR three
ENCODING 51
SWIDTH 785 0
DWIDTH 9 0
BBX 8 10 0 0
BITMAP
7C
C6
03
06
1C
06
03
03
C6
7C
ENDCHAR
STARTCHAR four
ENCODING 52
SWIDTH 785 0
DWIDTH 9 0
BBX 8 10 0 0
BITMAP
06
0E
1E
36
66
C6
FF
06
06
06
ENDCHAR
STARTCHAR five
ENCODING 53
SWIDTH 785 0
DWIDTH 9 0
BBX 8 10 0 0
BITMAP
FE
C0
C0
DC
E6
03
03
C3
66
3C
ENDCHAR
STARTCHAR six
ENCODING 54
SWIDTH 785 0
DWIDTH 9 0
BBX 8 10 0 0
BITMAP
3C
66
C2
C0
DC
E6
C3
C3
66
3C
ENDCHAR
STARTCHAR seven
ENCODING 55
SWIDTH 785 0
DWIDTH 9 0
BBX 8 10 0 0
BITMAP
FF
03
03
06
0C
0C
18
18
18
18
ENDCHAR
STARTCHAR eight
ENCODING 56
SWIDTH 785 0
DWIDTH 9 0
BBX 8 10 0 0
BITMAP
3C
66
C3
66
3C
66
C3
C3
66
3C
ENDCHAR
STARTCHAR nine
ENCODING 57
SWIDTH 785 0
DWIDTH 9 0
BBX 8 10 0 0
BITMAP
3C
66
C3
C3
67
3B
03
43
66
3C
ENDCHAR
STARTCHAR colon
ENCODING 58
SWIDTH 785 0
DWIDTH 9 0
BBX 8 8 0 -1
BITMAP
18
3C
18
00
00
18
3C
18
ENDCHAR
STARTCHAR semicolon
ENCODING 59
SWIDTH 785 0
DWIDTH 9 0
BBX 8 10 0 -3
BITMAP
18
3C
18
00
00
1C
1C
0C
0C
18
ENDCHAR
STARTCHAR less
ENCODING 60
SWIDTH 785 0
DWIDTH 9 0
BBX 8 10 0 0
BITMAP
06
0C
18
30
60
60
30
18
0C
06
ENDCHAR
STARTCHAR equal
ENCODING 61
SWIDTH 785 0
DWIDTH 9 0
BBX 8 4 0 2
BITMAP
FF
00
00
FF
ENDCHAR
STARTCHAR greater
ENCODING 62
SWIDTH 785 0
DWIDTH 9 0
BBX 8 10 0 0
BITMAP
60
30
18
0C
06
06
0C
18
30
60
ENDCHAR
STARTCHAR question
ENCODING 63
SWIDTH 785 0
DWIDTH 9 0
BBX 8 10 0 0
BITMAP
3E
63
63
03
06
0C
18
00
18
18
ENDCHAR
STARTCHAR at
ENCODING 64
SWIDTH 785 0
DWIDTH 9 0
BBX 8 10 0 0
BITMAP
3C
66
C3
CF
DB
DB
CE
C0
63
3E
ENDCHAR
STARTCHAR A
ENCODING 65
SWIDTH 785 0
DWIDTH 9 0
BBX 8 10 0 0
BITMAP
18
3C
66
C3
C3
C3
FF
C3
C3
C3
ENDCHAR
STARTCHAR B
ENCODING 66
SWIDTH 785 0
DWIDTH 9 0
BBX 8 10 0 0
BITMAP
FC
C6
C3
C6
FC
C6
C3
C3
C6
FC
ENDCHAR
STARTCHAR C
ENCODING 67
SWIDTH 785 0
DWIDTH 9 0
BBX 8 10 0 0
BITMAP
3E
63
C1
C0
C0
C0
C0
C1
63
3E
ENDCHAR
STARTCHAR D
ENCODING 68
SWIDTH 785 0
DWIDTH 9 0
BBX 8 10 0 0
BITMAP
FC
C6
C3
C3
C3
C3
C3
C3
C6
FC
ENDCHAR
STARTCHAR E
ENCODING 69
SWIDTH 785 0
DWIDTH 9 0
BBX 8 10 0 0
BITMAP
7F
60
60
60
7E
60
60
60
60
7F
ENDCHAR
STARTCHAR F
ENCODING 70
SWIDTH 785 0
DWIDTH 9 0
BBX 8 10 0 0
BITMAP
FF
C0
C0
C0
FC
C0
C0
C0
C0
C0
ENDCHAR
STARTCHAR G
ENCODING 71
SWIDTH 785 0
DWIDTH 9 0
BBX 8 10 0 0
BITMAP
3E
63
C0
C0
C0
C7
C3
C3
63
3E
ENDCHAR
STARTCHAR H
ENCODING 72
SWIDTH 785 0
DWIDTH 9 0
BBX 8 10 0 0
BITMAP
C3
C3
C3
C3
FF
C3
C3
C3
C3
C3
ENDCHAR
STARTCHAR I
ENCODING 73
SWIDTH 785 0
DWIDTH 9 0
BBX 8 10 0 0
BITMAP
7E
18
18
18
18
18
18
18
18
7E
ENDCHAR
STARTCHAR J
ENCODING 74
SWIDTH 785 0
DWIDTH 9 0
BBX 8 10 0 0
BITMAP
1E
06
06
06
06
06
06
46
6C
38
ENDCHAR
STARTCHAR K
ENCODING 75
SWIDTH 785 0
DWIDTH 9 0
BBX 8 10 0 0
BITMAP
C3
C6
CC
D8
F0
F0
D8
CC
C6
C3
ENDCHAR
STARTCHAR L
ENCODING 76
SWIDTH 785 0
DWIDTH 9 0
BBX 8 10 0 0
BITMAP
60
60
60
60
60
60
60
60
60
7F
ENDCHAR
STARTCHAR M
ENCODING 77
SWIDTH 785 0
DWIDTH 9 0
BBX 8 10 0 0
BITMAP
C3
E7
FF
DB
DB
DB
C3
C3
C3
C3
ENDCHAR
STARTCHAR N
ENCODING 78
SWIDTH 785 0
DWIDTH 9 0
BBX 8 10 0 0
BITMAP
C3
E3
F3
F3
DB
DB
CF
C7
C7
C3
ENDCHAR
STARTCHAR O
ENCODING 79
SWIDTH 785 0
DWIDTH 9 0
BBX 8 10 0 0
BITMAP
3C
66
C3
C3
C3
C3
C3
C3
66
3C
ENDCHAR
STARTCHAR P
ENCODING 80
SWIDTH 785 0
DWIDTH 9 0
BBX 8 10 0 0
BITMAP
FE
C3
C3
C3
FE
C0
C0
C0
C0
C0
ENDCHAR
STARTCHAR Q
ENCODING 81
SWIDTH 785 0
DWIDTH 9 0
BBX 8 10 0 0
BITMAP
3C
66
C3
C3
C3
C3
DB
CF
66
3D
ENDCHAR
STARTCHAR R
ENCODING 82
SWIDTH 785 0
DWIDTH 9 0
BBX 8 10 0 0
BITMAP
FE
C3
C3
C3
FE
F8
CC
C6
C3
C3
ENDCHAR
STARTCHAR S
ENCODING 83
SWIDTH 785 0
DWIDTH 9 0
BBX 8 10 0 0
BITMAP
7E
C3
C0
C0
7E
03
03
03
C3
7E
ENDCHAR
STARTCHAR T
ENCODING 84
SWIDTH 785 0
DWIDTH 9 0
BBX 8 10 0 0
BITMAP
FF
18
18
18
18
18
18
18
18
18
ENDCHAR
STARTCHAR U
ENCODING 85
SWIDTH 785 0
DWIDTH 9 0
BBX 8 10 0 0
BITMAP
C3
C3
C3
C3
C3
C3
C3
C3
66
3C
ENDCHAR
STARTCHAR V
ENCODING 86
SWIDTH 785 0
DWIDTH 9 0
BBX 8 10 0 0
BITMAP
C3
C3
C3
66
66
66
3C
3C
18
18
ENDCHAR
STARTCHAR W
ENCODING 87
SWIDTH 785 0
DWIDTH 9 0
BBX 8 10 0 0
BITMAP
C3
C3
C3
C3
DB
DB
DB
FF
E7
C3
ENDCHAR
STARTCHAR X
ENCODING 88
SWIDTH 785 0
DWIDTH 9 0
BBX 8 10 0 0
BITMAP
C3
C3
66
3C
18
18
3C
66
C3
C3
ENDCHAR
STARTCHAR Y
ENCODING 89
SWIDTH 785 0
DWIDTH 9 0
BBX 8 10 0 0
BITMAP
C3
C3
66
3C
18
18
18
18
18
18
ENDCHAR
STARTCHAR Z
ENCODING 90
SWIDTH 785 0
DWIDTH 9 0
BBX 8 10 0 0
BITMAP
7F
03
03
06
0C
18
30
60
60
7F
ENDCHAR
STARTCHAR bracketleft
ENCODING 91
SWIDTH 785 0
DWIDTH 9 0
BBX 8 12 0 -1
BITMAP
3E
30
30
30
30
30
30
30
30
30
30
3E
ENDCHAR
STARTCHAR backslash
ENCODING 92
SWIDTH 785 0
DWIDTH 9 0
BBX 8 10 0 0
BITMAP
C0
60
60
30
18
18
0C
06
06
03
ENDCHAR
STARTCHAR bracketright
ENCODING 93
SWIDTH 785 0
DWIDTH 9 0
BBX 8 12 0 -1
BITMAP
3E
06
06
06
06
06
06
06
06
06
06
3E
ENDCHAR
STARTCHAR asciicircum
ENCODING 94
SWIDTH 785 0
DWIDTH 9 0
BBX 8 4 0 6
BITMAP
18
3C
66
42
ENDCHAR
STARTCHAR underscore
ENCODING 95
SWIDTH 785 0
DWIDTH 9 0
BBX 8 1 0 -1
BITMAP
FF
ENDCHAR
STARTCHAR grave
ENCODING 96
SWIDTH 785 0
DWIDTH 9 0
BBX 8 3 0 8
BITMAP
30
18
0C
ENDCHAR
STARTCHAR a
ENCODING 97
SWIDTH 785 0
DWIDTH 9 0
BBX 8 7 0 0
BITMAP
3E
63
03
7F
C3
C7
7B
ENDCHAR
STARTCHAR b
ENCODING 98
SWIDTH 785 0
DWIDTH 9 0
BBX 8 10 0 0
BITMAP
C0
C0
C0
DC
E6
C3
C3
C3
E6
DC
ENDCHAR
STARTCHAR c
ENCODING 99
SWIDTH 785 0
DWIDTH 9 0
BBX 8 7 0 0
BITMAP
3E
63
C0
C0
C0
63
3E
ENDCHAR
STARTCHAR d
ENCODING 100
SWIDTH 785 0
DWIDTH 9 0
BBX 8 10 0 0
BITMAP
03
03
03
3B
67
C3
C3
C3
67
3B
ENDCHAR
STARTCHAR e
ENCODING 101
SWIDTH 785 0
DWIDTH 9 0
BBX 8 7 0 0
BITMAP
3C
66
C3
FF
C0
63
3E
ENDCHAR
STARTCHAR f
ENCODING 102
SWIDTH 785 0
DWIDTH 9 0
BBX 8 10 0 0
BITMAP
1E
33
33
30
30
FC
30
30
30
30
ENDCHAR
STARTCHAR g
ENCODING 103
SWIDTH 785 0
DWIDTH 9 0
BBX 8 10 0 -3
BITMAP
7D
C7
C6
C6
7C
C0
7E
C3
C3
7E
ENDCHAR
STARTCHAR h
ENCODING 104
SWIDTH 785 0
DWIDTH 9 0
BBX 8 10 0 0
BITMAP
C0
C0
C0
DC
E6
C3
C3
C3
C3
C3
ENDCHAR
STARTCHAR i
ENCODING 105
SWIDTH 785 0
DWIDTH 9 0
BBX 8 10 0 0
BITMAP
18
18
00
38
18
18
18
18
18
7E
ENDCHAR
STARTCHAR j
ENCODING 106
SWIDTH 785 0
DWIDTH 9 0
BBX 8 13 0 -3
BITMAP
03
03
00
0F
03
03
03
03
03
63
63
63
3E
ENDCHAR
STARTCHAR k
ENCODING 107
SWIDTH 785 0
DWIDTH 9 0
BBX 8 10 0 0
BITMAP
60
60
60
66
6C
78
78
6C
66
63
ENDCHAR
STARTCHAR l
ENCODING 108
SWIDTH 785 0
DWIDTH 9 0
BBX 8 10 0 0
BITMAP
38
18
18
18
18
18
18
18
18
7E
ENDCHAR
STARTCHAR m
ENCODING 109
SWIDTH 785 0
DWIDTH 9 0
BBX 8 7 0 0
BITMAP
B6
DB
DB
DB
DB
DB
DB
ENDCHAR
STARTCHAR n
ENCODING 110
SWIDTH 785 0
DWIDTH 9 0
BBX 8 7 0 0
BITMAP
DC
E6
C3
C3
C3
C3
C3
ENDCHAR
STARTCHAR o
ENCODING 111
SWIDTH 785 0
DWIDTH 9 0
BBX 8 7 0 0
BITMAP
3C
66
C3
C3
C3
66
3C
ENDCHAR
STARTCHAR p
ENCODING 112
SWIDTH 785 0
DWIDTH 9 0
BBX 8 10 0 -3
BITMAP
DC
E6
C3
C3
C3
E6
DC
C0
C0
C0
ENDCHAR
STARTCHAR q
ENCODING 113
SWIDTH 785 0
DWIDTH 9 0
BBX 8 10 0 -3
BITMAP
3B
67
C3
C3
C3
67
3B
03
03
03
ENDCHAR
STARTCHAR r
ENCODING 114
SWIDTH 785 0
DWIDTH 9 0
BBX 8 7 0 0
BITMAP
DE
73
60
60
60
60
60
ENDCHAR
STARTCHAR s
ENCODING 115
SWIDTH 785 0
DWIDTH 9 0
BBX 8 7 0 0
BITMAP
7E
C3
C0
7E
03
C3
7E
ENDCHAR
STARTCHAR t
ENCODING 116
SWIDTH 785 0
DWIDTH 9 0
BBX 8 9 0 0
BITMAP
30
30
FC
30
30
30
30
33
1E
ENDCHAR
STARTCHAR u
ENCODING 117
SWIDTH 785 0
DWIDTH 9 0
BBX 8 7 0 0
BITMAP
C3
C3
C3
C3
C3
67
3B
ENDCHAR
STARTCHAR v
ENCODING 118
SWIDTH 785 0
DWIDTH 9 0
BBX 8 7 0 0
BITMAP
C3
C3
66
66
3C
3C
18
ENDCHAR
STARTCHAR w
ENCODING 119
SWIDTH 785 0
DWIDTH 9 0
BBX 8 7 0 0
BITMAP
C3
C3
DB
DB
DB
FF
66
ENDCHAR
STARTCHAR x
ENCODING 120
SWIDTH 785 0
DWIDTH 9 0
BBX 8 7 0 0
BITMAP
C3
66
3C
18
3C
66
C3
ENDCHAR
STARTCHAR y
ENCODING 121
SWIDTH 785 0
DWIDTH 9 0
BBX 8 10 0 -3
BITMAP
C3
C3
C3
C3
C3
67
3B
03
C6
7C
ENDCHAR
STARTCHAR z
ENCODING 122
SWIDTH 785 0
DWIDTH 9 0
BBX 8 7 0 0
BITMAP
7E
06
0C
18
30
60
7E
ENDCHAR
STARTCHAR braceleft
ENCODING 123
SWIDTH 785 0
DWIDTH 9 0
BBX 8 12 0 -1
BITMAP
0E
18
18
18
18
30
30
18
18
18
18
0E
ENDCHAR
STARTCHAR bar
ENCODING 124
SWIDTH 785 0
DWIDTH 9 0
BBX 8 10 0 0
BITMAP
18
18
18
18
18
18
18
18
18
18
ENDCHAR
STARTCHAR braceright
ENCODING 125
SWIDTH 785 0
DWIDTH 9 0
BBX 8 12 0 -1
BITMAP
38
0C
0C
0C
0C
06
06
0C
0C
0C
0C
38
ENDCHAR
STARTCHAR asciitilde
ENCODING 126
SWIDTH 785 0
DWIDTH 9 0
BBX 8 3 0 7
BITMAP
73
DB
CE
ENDCHAR
STARTCHAR bullet
ENCODING 149
SWIDTH 785 0
DWIDTH 9 0
BBX 8 4 0 3
BITMAP
18
3C
3C
18
ENDCHAR
STARTCHAR lessequal
ENCODING 152
SWIDTH 785 0
DWIDTH 9 0
BBX 8 9 0 0
BITMAP
07
1C
70
C0
70
1C
07
00
FF
ENDCHAR
STARTCHAR greaterequal
ENCODING 153
SWIDTH 785 0
DWIDTH 9 0
BBX 8 9 0 0
BITMAP
E0
38
0E
03
0E
38
E0
00
FF
ENDCHAR
STARTCHAR space
ENCODING 154
SWIDTH 785 0
DWIDTH 9 0
BBX 0 0 0 0
BITMAP
ENDCHAR
STARTCHAR degree
ENCODING 156
SWIDTH 785 0
DWIDTH 9 0
BBX 8 4 0 6
BITMAP
1E
33
33
1E
ENDCHAR
STARTCHAR twosuperior
ENCODING 157
SWIDTH 785 0
DWIDTH 9 0
BBX 8 7 0 4
BITMAP
38
4C
0C
18
30
60
7C
ENDCHAR
STARTCHAR periodcentered
ENCODING 158
SWIDTH 785 0
DWIDTH 9 0
BBX 8 3 0 3
BITMAP
08
1C
08
ENDCHAR
STARTCHAR afii10071
ENCODING 163
SWIDTH 785 0
DWIDTH 9 0
BBX 8 10 0 0
BITMAP
36
36
00
3E
63
63
7F
60
63
3E
ENDCHAR
STARTCHAR afii10023
ENCODING 179
SWIDTH 785 0
DWIDTH 9 0
BBX 8 11 0 0
BITMAP
36
7F
60
60
60
7E
60
60
60
60
7F
ENDCHAR
STARTCHAR copyright
ENCODING 191
SWIDTH 785 0
DWIDTH 9 0
BBX 8 11 0 0
BITMAP
3C
7E
C3
BD
A5
A1
A5
BD
C3
7E
3C
ENDCHAR
STARTCHAR afii10096
ENCODING 192
SWIDTH 785 0
DWIDTH 9 0
BBX 8 7 0 0
BITMAP
CE
DB
DB
FB
DB
DB
CE
ENDCHAR
STARTCHAR afii10065
ENCODING 193
SWIDTH 785 0
DWIDTH 9 0
BBX 8 7 0 0
BITMAP
3E
03
03
3F
63
63
3F
ENDCHAR
STARTCHAR afii10066
ENCODING 194
SWIDTH 785 0
DWIDTH 9 0
BBX 8 10 0 0
BITMAP
02
3C
60
7E
63
63
63
63
63
3E
ENDCHAR
STARTCHAR afii10088
ENCODING 195
SWIDTH 785 0
DWIDTH 9 0
BBX 8 9 0 -2
BITMAP
C6
C6
C6
C6
C6
C6
FF
03
03
ENDCHAR
STARTCHAR afii10069
ENCODING 196
SWIDTH 785 0
DWIDTH 9 0
BBX 8 8 0 -1
BITMAP
1E
36
66
66
66
66
FF
C3
ENDCHAR
STARTCHAR afii10070
ENCODING 197
SWIDTH 785 0
DWIDTH 9 0
BBX 8 7 0 0
BITMAP
3C
66
C3
FF
C0
63
3E
ENDCHAR
STARTCHAR afii10086
ENCODING 198
SWIDTH 785 0
DWIDTH 9 0
BBX 8 13 0 -3
BITMAP
18
18
18
7E
DB
DB
DB
DB
DB
7E
18
18
18
ENDCHAR
STARTCHAR afii10068
ENCODING 199
SWIDTH 785 0
DWIDTH 9 0
BBX 8 7 0 0
BITMAP
7F
60
60
60
60
60
60
ENDCHAR
STARTCHAR afii10087
ENCODING 200
SWIDTH 785 0
DWIDTH 9 0
BBX 8 7 0 0
BITMAP
C3
66
3C
18
3C
66
C3
ENDCHAR
STARTCHAR afii10074
ENCODING 201
SWIDTH 785 0
DWIDTH 9 0
BBX 8 7 0 0
BITMAP
63
63
67
6B
73
63
63
ENDCHAR
STARTCHAR afii10075
ENCODING 202
SWIDTH 785 0
DWIDTH 9 0
BBX 8 9 0 0
BITMAP
1C
08
63
63
67
6B
73
63
63
ENDCHAR
STARTCHAR afii10076
ENCODING 203
SWIDTH 785 0
DWIDTH 9 0
BBX 8 7 0 0
BITMAP
63
66
6C
78
6C
66
63
ENDCHAR
STARTCHAR afii10077
ENCODING 204
SWIDTH 785 0
DWIDTH 9 0
BBX 8 7 0 0
BITMAP
0F
1B
33
33
33
33
63
ENDCHAR
STARTCHAR afii10078
ENCODING 205
SWIDTH 785 0
DWIDTH 9 0
BBX 8 7 0 0
BITMAP
63
77
7F
6B
63
63
63
ENDCHAR
STARTCHAR afii10079
ENCODING 206
SWIDTH 785 0
DWIDTH 9 0
BBX 8 7 0 0
BITMAP
63
63
63
7F
63
63
63
ENDCHAR
STARTCHAR afii10080
ENCODING 207
SWIDTH 785 0
DWIDTH 9 0
BBX 8 7 0 0
BITMAP
3E
63
63
63
63
63
3E
ENDCHAR
STARTCHAR afii10081
ENCODING 208
SWIDTH 785 0
DWIDTH 9 0
BBX 8 7 0 0
BITMAP
7F
63
63
63
63
63
63
ENDCHAR
STARTCHAR afii10097
ENCODING 209
SWIDTH 785 0
DWIDTH 9 0
BBX 8 7 0 0
BITMAP
3F
63
63
3F
1B
33
63
ENDCHAR
STARTCHAR afii10082
ENCODING 210
SWIDTH 785 0
DWIDTH 9 0
BBX 8 10 0 -3
BITMAP
7E
63
63
63
63
63
7E
60
60
60
ENDCHAR
STARTCHAR afii10083
ENCODING 211
SWIDTH 785 0
DWIDTH 9 0
BBX 8 7 0 0
BITMAP
3E
63
60
60
60
63
3E
ENDCHAR
STARTCHAR afii10084
ENCODING 212
SWIDTH 785 0
DWIDTH 9 0
BBX 8 7 0 0
BITMAP
FF
18
18
18
18
18
18
ENDCHAR
STARTCHAR afii10085
ENCODING 213
SWIDTH 785 0
DWIDTH 9 0
BBX 8 10 0 -3
BITMAP
63
63
63
63
63
63
3F
03
43
3E
ENDCHAR
STARTCHAR afii10072
ENCODING 214
SWIDTH 785 0
DWIDTH 9 0
BBX 8 7 0 0
BITMAP
DB
DB
7E
3C
7E
DB
DB
ENDCHAR
STARTCHAR afii10067
ENCODING 215
SWIDTH 785 0
DWIDTH 9 0
BBX 8 7 0 0
BITMAP
7C
66
66
7E
63
63
7E
ENDCHAR
STARTCHAR afii10094
ENCODING 216
SWIDTH 785 0
DWIDTH 9 0
BBX 8 7 0 0
BITMAP
60
60
7E
63
63
63
7E
ENDCHAR
STARTCHAR afii10093
ENCODING 217
SWIDTH 785 0
DWIDTH 9 0
BBX 8 7 0 0
BITMAP
C3
C3
FB
CF
CF
CF
FB
ENDCHAR
STARTCHAR afii10073
ENCODING 218
SWIDTH 785 0
DWIDTH 9 0
BBX 8 7 0 0
BITMAP
3E
63
03
1E
07
63
3E
ENDCHAR
STARTCHAR afii10090
ENCODING 219
SWIDTH 785 0
DWIDTH 9 0
BBX 8 7 0 0
BITMAP
DB
DB
DB
DB
DB
DB
FF
ENDCHAR
STARTCHAR afii10095
ENCODING 220
SWIDTH 785 0
DWIDTH 9 0
BBX 8 7 0 0
BITMAP
3E
63
03
0F
03
63
3E
ENDCHAR
STARTCHAR afii10091
ENCODING 221
SWIDTH 785 0
DWIDTH 9 0
BBX 9 9 0 -2
BITMAP
DB00
DB00
DB00
DB00
DB00
DB00
FF80
0180
0180
ENDCHAR
STARTCHAR afii10089
ENCODING 222
SWIDTH 785 0
DWIDTH 9 0
BBX 8 7 0 0
BITMAP
63
63
63
3F
03
03
03
ENDCHAR
STARTCHAR afii10092
ENCODING 223
SWIDTH 785 0
DWIDTH 9 0
BBX 8 7 0 0
BITMAP
F0
30
3E
33
33
33
3E
ENDCHAR
STARTCHAR afii10048
ENCODING 224
SWIDTH 785 0
DWIDTH 9 0
BBX 8 10 0 0
BITMAP
CE
DB
DB
DB
FB
DB
DB
DB
DB
CE
ENDCHAR
STARTCHAR afii10017
ENCODING 225
SWIDTH 785 0
DWIDTH 9 0
BBX 8 10 0 0
BITMAP
3C
66
C3
C3
C3
FF
C3
C3
C3
C3
ENDCHAR
STARTCHAR afii10018
ENCODING 226
SWIDTH 785 0
DWIDTH 9 0
BBX 8 10 0 0
BITMAP
7E
60
60
60
7E
63
63
63
63
7E
ENDCHAR
STARTCHAR afii10040
ENCODING 227
SWIDTH 785 0
DWIDTH 9 0
BBX 8 12 0 -2
BITMAP
C6
C6
C6
C6
C6
C6
C6
C6
C6
FF
03
03
ENDCHAR
STARTCHAR afii10021
ENCODING 228
SWIDTH 785 0
DWIDTH 9 0
BBX 8 11 0 -1
BITMAP
1E
36
66
66
66
66
66
66
66
FF
C3
ENDCHAR
STARTCHAR afii10022
ENCODING 229
SWIDTH 785 0
DWIDTH 9 0
BBX 8 10 0 0
BITMAP
7F
60
60
60
7E
60
60
60
60
7F
ENDCHAR
STARTCHAR afii10038
ENCODING 230
SWIDTH 785 0
DWIDTH 9 0
BBX 8 10 0 0
BITMAP
18
7E
DB
DB
DB
DB
DB
DB
7E
18
ENDCHAR
STARTCHAR afii10020
ENCODING 231
SWIDTH 785 0
DWIDTH 9 0
BBX 8 10 0 0
BITMAP
7F
60
60
60
60
60
60
60
60
60
ENDCHAR
STARTCHAR afii10039
ENCODING 232
SWIDTH 785 0
DWIDTH 9 0
BBX 8 10 0 0
BITMAP
C3
C3
66
3C
18
18
3C
66
C3
C3
ENDCHAR
STARTCHAR afii10026
ENCODING 233
SWIDTH 785 0
DWIDTH 9 0
BBX 8 10 0 0
BITMAP
63
63
63
67
6B
73
63
63
63
63
ENDCHAR
STARTCHAR afii10027
ENCODING 234
SWIDTH 785 0
DWIDTH 9 0
BBX 8 11 0 0
BITMAP
1C
6B
63
63
67
6B
73
63
63
63
63
ENDCHAR
STARTCHAR afii10028
ENCODING 235
SWIDTH 785 0
DWIDTH 9 0
BBX 8 10 0 0
BITMAP
63
66
6C
78
70
70
78
6C
66
63
ENDCHAR
STARTCHAR afii10029
ENCODING 236
SWIDTH 785 0
DWIDTH 9 0
BBX 8 10 0 0
BITMAP
0F
1B
33
33
33
33
33
33
73
63
ENDCHAR
STARTCHAR afii10030
ENCODING 237
SWIDTH 785 0
DWIDTH 9 0
BBX 8 10 0 0
BITMAP
63
63
77
77
7F
6B
6B
63
63
63
ENDCHAR
STARTCHAR afii10031
ENCODING 238
SWIDTH 785 0
DWIDTH 9 0
BBX 8 10 0 0
BITMAP
63
63
63
63
7F
63
63
63
63
63
ENDCHAR
STARTCHAR afii10032
ENCODING 239
SWIDTH 785 0
DWIDTH 9 0
BBX 8 10 0 0
BITMAP
3E
63
63
63
63
63
63
63
63
3E
ENDCHAR
STARTCHAR afii10033
ENCODING 240
SWIDTH 785 0
DWIDTH 9 0
BBX 8 10 0 0
BITMAP
7F
63
63
63
63
63
63
63
63
63
ENDCHAR
STARTCHAR afii10049
ENCODING 241
SWIDTH 785 0
DWIDTH 9 0
BBX 8 10 0 0
BITMAP
3F
63
63
63
3F
0F
1B
33
63
63
ENDCHAR
STARTCHAR afii10034
ENCODING 242
SWIDTH 785 0
DWIDTH 9 0
BBX 8 10 0 0
BITMAP
7E
63
63
63
7E
60
60
60
60
60
ENDCHAR
STARTCHAR afii10035
ENCODING 243
SWIDTH 785 0
DWIDTH 9 0
BBX 8 10 0 0
BITMAP
3E
63
60
60
60
60
60
60
63
3E
ENDCHAR
STARTCHAR afii10036
ENCODING 244
SWIDTH 785 0
DWIDTH 9 0
BBX 8 10 0 0
BITMAP
FF
18
18
18
18
18
18
18
18
18
ENDCHAR
STARTCHAR afii10037
ENCODING 245
SWIDTH 785 0
DWIDTH 9 0
BBX 8 10 0 0
BITMAP
63
63
63
63
63
63
3F
03
63
3E
ENDCHAR
STARTCHAR afii10024
ENCODING 246
SWIDTH 785 0
DWIDTH 9 0
BBX 8 10 0 0
BITMAP
6B
6B
3E
3E
1C
3E
3E
6B
6B
6B
ENDCHAR
STARTCHAR afii10019
ENCODING 247
SWIDTH 785 0
DWIDTH 9 0
BBX 8 10 0 0
BITMAP
FC
C6
C6
C6
FE
C3
C3
C3
C3
FE
ENDCHAR
STARTCHAR afii10046
ENCODING 248
SWIDTH 785 0
DWIDTH 9 0
BBX 8 10 0 0
BITMAP
60
60
60
60
7E
63
63
63
63
7E
ENDCHAR
STARTCHAR afii10045
ENCODING 249
SWIDTH 785 0
DWIDTH 9 0
BBX 8 10 0 0
BITMAP
C3
C3
C3
C3
FB
CF
CF
CF
CF
FB
ENDCHAR
STARTCHAR afii10025
ENCODING 250
SWIDTH 785 0
DWIDTH 9 0
BBX 8 10 0 0
BITMAP
3E
43
03
03
1E
07
03
03
43
3E
ENDCHAR
STARTCHAR afii10042
ENCODING 251
SWIDTH 785 0
DWIDTH 9 0
BBX 8 10 0 0
BITMAP
DB
DB
DB
DB
DB
DB
DB
DB
DB
FF
ENDCHAR
STARTCHAR afii10047
ENCODING 252
SWIDTH 785 0
DWIDTH 9 0
BBX 8 10 0 0
BITMAP
3C
46
03
03
1F
03
03
03
46
3C
ENDCHAR
STARTCHAR afii10043
ENCODING 253
SWIDTH 785 0
DWIDTH 9 0
BBX 9 12 0 -2
BITMAP
DB00
DB00
DB00
DB00
DB00
DB00
DB00
DB00
DB00
FF80
0180
0180
ENDCHAR
STARTCHAR afii10041
ENCODING 254
SWIDTH 785 0
DWIDTH 9 0
BBX 8 10 0 0
BITMAP
63
63
63
63
63
3F
03
03
03
03
ENDCHAR
STARTCHAR afii10044
ENCODING 255
SWIDTH 785 0
DWIDTH 9 0
BBX 8 10 0 0
BITMAP
F0
30
30
30
3E
33
33
33
33
3E
ENDCHAR
ENDFONT
